PathFileType	4	(X/Y/Z)	C:\Users\Basilio\Documents\Thesis Gigler\squatting_fais\c3dfiles\019\SJ_pre5\markers_experimental.trc
DataRate	CameraRate	NumFrames	NumMarkers	Units	OrigDataRate	OrigDataStartFrame	OrigNumFrames
200.000000	200.000000	4	59	mm	200.000000	0	1303
Frame#	Time	FHD			LBHD			RBHD			C7			T10			CLAV			LSHO			LUUPA			LMUPA			LDUPA			LLEP			LMEP			LRAD			LUL			LRFIN			RSHO			RUPA1			RMUPA			RDUPA			RLEP			RMEP			RRAD			RUL			RUFIN			LASI			USACR			LSACR			RSACR			LTHI1			LTHI2			LTHI3			LTHI4			LLFC			LTIB1			LTIB2			LTIB3			LTIB4			LLMAL			LMMAL			LHEE			LMT1			LMT2			LMT5			RTHI			RTHI2			RTHI3			RTHI4			RLFC			RTIB1			RTIB2			RTIB3			RTIB4			RLMAL			RMMAL			RHEE			RMT1			RMT2			RMT5			RASI			
		X1	Y1	Z1	X2	Y2	Z2	X3	Y3	Z3	X4	Y4	Z4	X5	Y5	Z5	X6	Y6	Z6	X7	Y7	Z7	X8	Y8	Z8	X9	Y9	Z9	X10	Y10	Z10	X11	Y11	Z11	X12	Y12	Z12	X13	Y13	Z13	X14	Y14	Z14	X15	Y15	Z15	X16	Y16	Z16	X17	Y17	Z17	X18	Y18	Z18	X19	Y19	Z19	X20	Y20	Z20	X21	Y21	Z21	X22	Y22	Z22	X23	Y23	Z23	X24	Y24	Z24	X25	Y25	Z25	X26	Y26	Z26	X27	Y27	Z27	X28	Y28	Z28	X29	Y29	Z29	X30	Y30	Z30	X31	Y31	Z31	X32	Y32	Z32	X33	Y33	Z33	X34	Y34	Z34	X35	Y35	Z35	X36	Y36	Z36	X37	Y37	Z37	X38	Y38	Z38	X39	Y39	Z39	X40	Y40	Z40	X41	Y41	Z41	X42	Y42	Z42	X43	Y43	Z43	X44	Y44	Z44	X45	Y45	Z45	X46	Y46	Z46	X47	Y47	Z47	X48	Y48	Z48	X49	Y49	Z49	X50	Y50	Z50	X51	Y51	Z51	X52	Y52	Z52	X53	Y53	Z53	X54	Y54	Z54	X55	Y55	Z55	X56	Y56	Z56	X57	Y57	Z57	X58	Y58	Z58	X59	Y59	Z59	

1	0	-207.2754364013672	1689.452392578125	-872.3413696289065	-316.6743164062501	1642.365966796875	-1030.707275390625	-333.4184265136719	1636.787963867188	-891.846862792969	-346.4864196777344	1469.936157226563	-949.0833129882815	-380.8624877929688	1176.490234375	-947.2441406250002	-213.3720855712891	1418.010986328125	-950.7183837890627	-276.1839904785157	1452.895141601563	-1107.257446289063	-277.2693481445313	1302.446655273438	-1206.254638671875	-264.9402465820313	1261.650146484375	-1180.20361328125	-281.2471923828126	1241.004516601563	-1233.974731445313	-311.4154052734376	1182.84033203125	-1287.19921875	-370.0675659179688	1162.205444335938	-1260.81005859375	-230.2992095947266	951.072937011719	-1214.851318359375	-258.6507568359376	969.4006347656252	-1157.353515625	-216.5451660156251	953.1260375976565	-1120.038696289063	-268.7942504882813	1455.238647460938	-803.9174804687502	-337.4750061035157	1319.295288085938	-670.5740966796876	-301.2517395019532	1285.338989257813	-671.6676025390626	-339.4532775878907	1259.40234375	-634.5796508789064	-334.3751831054688	1183.179443359375	-607.1677246093751	-394.560272216797	1176.44189453125	-630.1115112304689	-283.0104675292969	976.446472167969	-746.7167968750001	-255.6771545410157	952.7436523437502	-693.5505371093751	-233.2156982421876	953.2705078125002	-782.8411865234377	-217.0290832519532	971.998229980469	-1058.125244140625	-377.4426574707032	1043.278198242188	-950.5798950195315	-382.4541931152344	1010.046752929688	-978.4517211914065	-382.1224060058594	1011.462646484375	-921.7451171875002	-302.3960876464844	722.5303344726564	-1149.166748046875	-269.8967590332032	643.2621459960939	-1154.512573242188	-223.7494506835938	645.9931640625001	-1142.12841796875	-299.5987854003907	590.6118774414064	-1145.14111328125	-307.2770996093751	493.2063293457032	-1137.546508789063	-261.0668640136719	352.5942382812501	-1128.12158203125	-323.8621215820313	315.3872375488282	-1177.679443359375	-284.9259643554688	309.1588134765626	-1160.84619140625	-282.3529052734376	226.1316070556641	-1136.552001953125	-358.0010070800782	98.43787384033206	-1164.86083984375	-326.7872619628907	97.36481475830081	-1088.037475585938	-400.1739196777345	43.26909255981446	-1109.795654296875	-186.926010131836	55.63409805297853	-1128.776123046875	-194.0891265869141	57.59128189086915	-1170.77392578125	-242.1560211181641	34.5731544494629	-1218.25390625	-282.6038513183594	789.374694824219	-751.8236694335939	-248.3641204833985	730.8973388671876	-748.0824584960939	-218.1910858154297	730.1758422851564	-762.8530273437501	-276.8894348144532	655.6697387695314	-737.6203002929689	-317.2480773925782	493.085662841797	-753.6245117187501	-268.1206970214844	303.9758605957032	-767.0709228515626	-335.5308227539063	235.5966491699219	-715.5701293945314	-294.7917785644532	230.5245208740235	-736.7941284179689	-292.7001342773438	182.0477752685547	-770.6601562500002	-362.8739929199219	99.98111724853518	-730.5554199218751	-326.2630310058594	96.28022003173831	-798.7451782226565	-401.0161743164064	44.32093811035157	-787.007019042969	-197.4393157958985	53.82284545898439	-737.1329345703126	-209.038803100586	60.04311752319337	-692.6139526367189	-262.1261291503907	40.4874610900879	-653.8804931640626	nan	nan	nan	
2	0.005	-204.8797607421876	1693.455810546875	-874.4483642578127	-316.6226501464844	1642.386474609375	-1030.670776367188	-332.9924621582032	1636.829833984375	-891.757263183594	-346.2541198730469	1469.986328125	-949.0953369140627	-380.5932312011719	1176.513061523438	-947.218444824219	-213.1869506835938	1417.948364257813	-950.7976684570315	-275.9441528320313	1452.8232421875	-1107.306518554688	-277.1652832031251	1302.374267578125	-1206.279907226563	-264.8770141601563	1261.608642578125	-1180.187744140625	-281.1144714355469	1240.945190429688	-1234.0107421875	-311.2646484375001	1182.793212890625	-1287.199951171875	-370.0111083984376	1162.175415039063	-1260.872436523438	-230.3086853027344	951.0359497070315	-1214.832641601563	-258.6191101074219	969.3928833007815	-1157.337768554688	-216.5644226074219	953.105163574219	-1119.990966796875	-268.4682312011719	1455.225341796875	-803.9552001953127	-337.2038879394532	1319.385986328125	-670.5952758789064	-301.0866088867188	1285.431762695313	-671.8321533203126	-339.2837524414063	1259.424926757813	-634.6588745117189	-334.1701049804688	1183.163330078125	-607.1430053710939	-394.2872619628907	1176.556274414063	-630.1104736328126	-282.8587951660157	976.4439086914065	-746.6474609375001	-255.5042266845704	952.779724121094	-693.5209960937501	-233.3507232666016	953.3274536132815	-782.9170532226565	-216.9611816406251	971.9611816406252	-1058.06884765625	-377.2739257812501	1043.341552734375	-950.5667724609377	-382.2439575195313	1010.238891601563	-978.4145507812502	-382.0078430175782	1011.575073242188	-921.6963500976565	-302.3539428710938	722.4890136718751	-1149.239868164063	-269.7425231933594	643.2365112304689	-1154.500610351563	-223.5872955322266	646.0377197265626	-1142.109008789063	-299.3349914550782	590.5632324218751	-1145.109619140625	-307.0291748046876	493.1763916015626	-1137.516357421875	-260.9342041015626	352.5555725097657	-1128.107543945313	-323.7025146484376	315.3655395507813	-1177.705444335938	-284.7632141113282	309.1263427734376	-1160.845336914063	-282.2734680175782	226.1148986816407	-1136.560424804688	-357.9536743164063	98.40682220458987	-1164.889038085938	-326.6679687500001	97.38183593750003	-1088.068725585938	-400.1906738281251	43.27360534667969	-1109.779052734375	-187.03271484375	55.65024948120119	-1128.886474609375	-193.9608612060547	57.58861541748048	-1170.732299804688	-242.1560058593751	34.57314682006837	-1218.25390625	-282.5966491699219	789.337585449219	-751.7678833007814	-248.3676757812501	730.9053955078126	-748.0974121093751	-218.2706298828126	730.2105102539064	-762.7752075195314	-276.8135375976563	655.6430053710939	-737.5475463867189	-317.1266479492188	493.068817138672	-753.6182861328126	-268.0814819335938	303.9184570312501	-767.0274047851564	-335.4873046875001	235.5840454101563	-715.5944213867189	-294.7459106445313	230.5329132080079	-736.7634887695314	-292.6702270507813	182.0454864501953	-770.6636962890627	-362.8392333984376	100.0002822875977	-730.5982055664064	-326.2203674316407	96.27154541015628	-798.7734985351565	-401.0161743164064	44.32093811035157	-787.007019042969	-197.4133300781251	53.82915496826173	-737.1203002929689	-208.9505157470704	59.96355056762697	-692.6660156250001	-262.1431579589844	40.53257369995118	-653.9124755859376	nan	nan	nan	
3	0.01	-206.3446044921876	1689.414672851563	-872.9532470703127	-316.5635986328126	1642.39453125	-1030.551147460938	-332.5651855468751	1636.877807617188	-891.613220214844	-346.0371704101563	1469.998168945313	-949.1268310546877	-380.3507080078126	1176.572875976563	-947.1314086914065	-212.9344482421876	1417.953369140625	-950.8738403320315	-275.8019409179688	1452.80712890625	-1107.337768554688	-276.9658813476563	1302.340209960938	-1206.279541015625	-264.7478332519532	1261.547607421875	-1180.238159179688	-280.9096069335938	1240.934814453125	-1233.992065429688	-311.2126464843751	1182.762084960938	-1287.19189453125	-369.8909912109376	1162.169799804688	-1260.87451171875	-230.2257537841797	950.9780883789065	-1214.745361328125	-258.5564270019532	969.3403320312502	-1157.287231445313	-216.4854736328126	953.0524902343752	-1119.904663085938	-268.1358337402344	1455.221801757813	-804.0062255859377	-336.9208068847657	1319.49365234375	-670.6557617187501	-300.8356628417969	1285.4404296875	-671.9891357421876	-339.0849609375001	1259.526733398438	-634.7041015625001	-333.9282836914063	1183.333129882813	-607.1369018554689	-394.0735473632814	1176.66552734375	-630.0607910156251	-282.7634277343751	976.4856567382815	-746.6386718750001	-255.4049835205079	952.799255371094	-693.4851074218751	-233.2461242675782	953.3349609375002	-782.888366699219	-216.9036407470704	971.850036621094	-1058.08740234375	-377.0106811523438	1043.525634765625	-950.5816650390627	-382.0886840820313	1010.383361816406	-978.4133300781252	-381.9404602050782	1011.770690917969	-921.707946777344	-302.2689819335938	722.4482421875001	-1149.311889648438	-269.5353393554688	643.2220458984376	-1154.4912109375	-223.418685913086	646.0465087890626	-1142.0908203125	-299.1778259277344	590.5537109375001	-1145.124633789063	-306.8336486816407	493.1492614746095	-1137.484619140625	-260.7583923339844	352.5105285644532	-1128.070190429688	-323.6408691406251	315.4108886718751	-1177.596923828125	-284.5713500976563	309.1169738769532	-1160.853759765625	-282.1763305664063	226.0376739501954	-1136.49462890625	-357.9328918457032	98.46649169921878	-1164.78125	-326.6381225585938	97.38696289062503	-1087.993774414063	-400.1685180664064	43.31277084350587	-1109.789306640625	-186.8602142333985	55.60488891601564	-1128.784790039063	-194.0121612548829	57.57154846191408	-1170.775512695313	-242.1961212158204	34.56306076049805	-1218.287109375	-282.6750793457032	789.3013305664065	-751.7487792968751	-248.4281921386719	730.8536987304689	-748.1668090820314	-218.2593841552735	730.1518554687501	-762.7753295898439	-276.8384094238282	655.6039428710939	-737.5466308593751	-316.9747009277344	492.9762268066407	-753.6205444335939	-268.0069274902344	304.0744628906251	-767.1130981445314	-335.4106750488282	235.6243896484376	-715.6134033203126	-294.6346435546876	230.5583801269532	-736.8073120117189	-292.5697631835938	182.0757751464844	-770.660095214844	-362.8595886230469	100.0152130126953	-730.6623535156251	-326.2265319824219	96.29019927978518	-798.791198730469	-401.0161743164064	44.3209342956543	-787.007019042969	-197.4264678955079	53.82512283325197	-737.1268920898439	-208.8878784179688	59.96768188476564	-692.6625976562501	-262.1310729980469	40.49629974365235	-653.9333496093751	nan	nan	nan	
4	0.015	-205.8307037353516	1689.434326171875	-873.2427368164065	-316.4829711914063	1642.449340820313	-1030.4697265625	-332.1618957519532	1637.02099609375	-891.4598388671877	-345.7136230468751	1470.021606445313	-949.1673583984377	-380.0741271972657	1176.590209960938	-947.1088867187502	-212.7760620117188	1417.887939453125	-950.8745727539065	-275.5736083984376	1452.755981445313	-1107.355834960938	-276.9082641601563	1302.3095703125	-1206.279541015625	-264.5884399414063	1261.477172851563	-1180.196533203125	-280.8331604003907	1240.877075195313	-1233.981323242188	-311.0971069335938	1182.704833984375	-1287.213256835938	-369.7072143554688	1162.123779296875	-1260.90283203125	-230.1852722167969	950.903503417969	-1214.720825195313	-258.5297851562501	969.3217773437502	-1157.258422851563	-216.5190124511719	952.9522094726565	-1119.854370117188	-267.8676757812501	1455.203002929688	-804.0458984375002	-336.6689147949219	1319.54296875	-670.7072143554689	-300.5301208496094	1285.54931640625	-671.9611816406251	-338.8784179687501	1259.5625	-634.7337036132814	-333.4801940917969	1183.751831054688	-607.1014404296876	-393.8712768554689	1176.794189453125	-629.9868774414064	-282.7146301269532	976.5603027343752	-746.5610351562501	-255.3998413085938	952.8023681640627	-693.4476928710939	-233.2249908447266	953.3037109375002	-782.881530761719	-216.8660583496094	971.7763671875002	-1058.104614257813	-376.7750244140626	1043.7734375	-950.5657958984377	-381.8595581054688	1010.640869140625	-978.351257324219	-381.7019348144532	1012.018676757813	-921.6502685546877	-302.2154235839844	722.3808593750001	-1149.386596679688	-269.3534851074219	643.2326049804689	-1154.54833984375	-223.2372589111329	646.0665283203126	-1142.048706054688	-298.8906860351563	590.4853515625001	-1145.133666992188	-306.4990234375001	493.1070861816407	-1137.463012695313	-260.5455322265626	352.4769287109376	-1128.058837890625	-323.3174133300782	315.3153686523438	-1177.715942382813	-284.3704223632813	309.0669250488282	-1160.829956054688	-282.0444946289063	226.0348052978516	-1136.489990234375	-357.8882141113282	98.45989227294925	-1164.7705078125	-326.5993957519532	97.36493682861331	-1088.01220703125	-400.1864013671876	43.32398223876954	-1109.790771484375	-186.7279357910157	55.58387374877931	-1128.743774414063	-193.9445190429688	57.54006195068361	-1170.750122070313	-242.1953125000001	34.58204650878907	-1218.279296875	-282.6851501464844	789.2708129882815	-751.7479248046876	-248.4270019531251	730.7868652343751	-748.1286621093751	-218.2702026367188	730.0903320312501	-762.7583007812501	-276.8221435546876	655.5534667968751	-737.5482788085939	-316.9254455566407	493.0433349609376	-753.6198120117189	-267.9067993164063	304.1855163574219	-767.1461791992189	-335.3493957519532	235.6080017089844	-715.6187133789064	-294.5858459472657	230.514389038086	-736.7830810546876	-292.4576110839844	182.0398559570313	-770.6812133789065	-362.8055419921876	100.0696258544922	-730.6649780273439	-326.1766052246094	96.28411102294925	-798.8555297851565	-400.9307861328126	44.2569808959961	-787.0471191406252	-197.3848114013672	53.76680374145509	-737.0950927734376	-208.8712615966797	59.94978713989259	-692.7062988281251	-262.0954589843751	40.52004623413087	-653.9511108398439	nan	nan	nan	
